<svg xmlns="http://www.w3.org/2000/svg" viewBox="0 0 204.57 104.79"><defs><style>.cls-1,.cls-2{fill:#ededed;}.cls-2{font-size:94.15px;font-family:ArialRoundedMTBold, Arial Rounded MT Bold;}</style></defs><title>logo_blanco</title><g id="Capa_2" data-name="Capa 2"><g id="Capa_1-2" data-name="Capa 1"><polygon class="cls-1" points="113.84 77.36 111.16 71.03 117.48 68.35 120.17 74.67 118.06 75.57 116.27 71.35 114.17 72.25 115.95 76.46 113.84 77.36"/><rect class="cls-1" x="112.95" y="67.45" width="2.29" height="3.43" transform="translate(-17.95 50.08) rotate(-23)"/><path class="cls-1" d="M106.27,16.36a34.36,34.36,0,1,0,34.35,34.36A34.36,34.36,0,0,0,106.27,16.36Zm0,60.7a26.34,26.34,0,1,1,26.34-26.34A26.34,26.34,0,0,1,106.27,77.06Z"/><path class="cls-1" d="M106.27,86.22a35.5,35.5,0,1,1,35.5-35.5A35.54,35.54,0,0,1,106.27,86.22Zm0-68.71a33.21,33.21,0,1,0,33.21,33.21A33.25,33.25,0,0,0,106.27,17.51Z"/><path class="cls-1" d="M88.78,73.38a28.63,28.63,0,0,1,33-46.73l-1.24,1.92a26.34,26.34,0,0,0-30.36,43Z"/><path class="cls-1" d="M106.27,79.35a28.55,28.55,0,0,1-15.51-4.56L92,72.86a26.34,26.34,0,0,0,30.73-42.71l1.43-1.78a28.63,28.63,0,0,1-17.89,51Z"/><path class="cls-1" d="M106.27,56.44A5.73,5.73,0,1,1,112,50.72,5.73,5.73,0,0,1,106.27,56.44Zm0-9.16a3.44,3.44,0,1,0,3.44,3.44A3.45,3.45,0,0,0,106.27,47.28Z"/><path class="cls-1" d="M106.27,61a10.31,10.31,0,1,1,10.31-10.3A10.32,10.32,0,0,1,106.27,61Zm0-18.32a8,8,0,1,0,8,8A8,8,0,0,0,106.27,42.7Z"/><rect class="cls-1" x="105.12" y="23.23" width="2.29" height="18.32"/><rect class="cls-1" x="92.17" y="28.6" width="2.29" height="18.32" transform="translate(0.63 77.04) rotate(-45)"/><rect class="cls-1" x="78.79" y="49.57" width="18.32" height="2.29"/><rect class="cls-1" x="84.15" y="62.53" width="18.32" height="2.29" transform="translate(-17.69 84.63) rotate(-45)"/><rect class="cls-1" x="105.12" y="59.88" width="2.29" height="18.32"/><rect class="cls-1" x="118.08" y="54.51" width="2.29" height="18.32" transform="translate(-10.1 102.96) rotate(-45)"/><rect class="cls-1" x="115.43" y="49.57" width="18.32" height="2.29"/><rect class="cls-1" x="110.07" y="36.62" width="18.32" height="2.29" transform="translate(8.22 95.37) rotate(-45)"/><text class="cls-2" transform="translate(0 83.93)">N</text><text class="cls-2" transform="translate(141.77 84.93)">É</text></g></g></svg>