<svg xmlns="http://www.w3.org/2000/svg" viewBox="0 0 360 57.71"><defs><style>.cls-1{fill:#fff;}.cls-2{fill:#ffd900;}</style></defs><title>huella_1</title><g id="Capa_2" data-name="Capa 2"><g id="Layer_1" data-name="Layer 1"><rect class="cls-1" width="360" height="57.71"/><polygon class="cls-2" points="127.9 14.38 115.91 14.38 112.15 20.91 118.68 30.43 127.9 14.38"/><polygon class="cls-2" points="112.93 14.38 100.94 14.38 97.18 20.91 103.7 30.43 112.93 14.38"/><polygon class="cls-2" points="68.01 14.38 56.02 14.38 52.27 20.91 58.79 30.43 68.01 14.38"/><polygon class="cls-2" points="53.04 14.38 41.05 14.38 37.29 20.91 43.82 30.43 53.04 14.38"/><polygon class="cls-2" points="82.98 14.38 70.99 14.38 67.24 20.91 73.76 30.43 82.98 14.38"/><polygon class="cls-2" points="97.95 14.38 85.96 14.38 82.21 20.91 88.73 30.43 97.95 14.38"/><polygon class="cls-2" points="142.87 14.38 130.88 14.38 127.12 20.91 133.65 30.43 142.87 14.38"/><polygon class="cls-2" points="217.73 14.38 205.74 14.38 201.98 20.91 208.51 30.43 217.73 14.38"/><polygon class="cls-2" points="187.79 14.38 175.79 14.38 172.04 20.91 178.56 30.43 187.79 14.38"/><polygon class="cls-2" points="202.76 14.38 190.77 14.38 187.01 20.91 193.53 30.43 202.76 14.38"/><polygon class="cls-2" points="157.84 14.38 145.85 14.38 142.1 20.91 148.62 30.43 157.84 14.38"/><polygon class="cls-2" points="172.81 14.38 160.82 14.38 157.07 20.91 163.59 30.43 172.81 14.38"/><polygon class="cls-2" points="24.58 11.8 27.13 7.37 15.13 7.37 12.59 11.8 24.58 11.8"/><polygon class="cls-2" points="38.07 14.38 26.07 14.38 22.32 20.91 28.84 30.43 38.07 14.38"/><polygon class="cls-2" points="232.7 14.38 220.71 14.38 216.96 20.91 223.48 30.43 232.7 14.38"/><polygon class="cls-2" points="247.68 14.38 235.68 14.38 231.93 20.91 238.45 30.43 247.68 14.38"/><polygon class="cls-2" points="292.59 14.38 280.6 14.38 276.85 20.91 283.37 30.43 292.59 14.38"/><polygon class="cls-2" points="299.6 7.37 297.05 11.8 309.05 11.8 311.6 7.37 299.6 7.37"/><polygon class="cls-2" points="277.62 14.38 265.62 14.38 261.87 20.91 268.39 30.43 277.62 14.38"/><polygon class="cls-2" points="262.65 14.38 250.66 14.38 246.9 20.91 253.42 30.43 262.65 14.38"/><polygon class="cls-2" points="57.07 7.37 45.08 7.37 42.53 11.8 54.52 11.8 57.07 7.37"/><polygon class="cls-2" points="39.55 11.8 42.1 7.37 30.1 7.37 27.56 11.8 39.55 11.8"/><polygon class="cls-2" points="23.1 14.38 11.1 14.38 7.35 20.91 13.87 30.43 23.1 14.38"/><polygon class="cls-2" points="295.57 14.38 291.82 20.91 298.34 30.43 307.56 14.38 295.57 14.38"/><polygon class="cls-2" points="281.65 7.37 269.66 7.37 267.11 11.8 279.11 11.8 281.65 7.37"/><polygon class="cls-2" points="251.71 7.37 239.71 7.37 237.17 11.8 249.16 11.8 251.71 7.37"/><polygon class="cls-2" points="266.68 7.37 254.69 7.37 252.14 11.8 264.13 11.8 266.68 7.37"/><polygon class="cls-2" points="296.62 7.37 284.63 7.37 282.08 11.8 294.08 11.8 296.62 7.37"/><polygon class="cls-2" points="72.04 7.37 60.05 7.37 57.5 11.8 69.49 11.8 72.04 7.37"/><polygon class="cls-2" points="116.96 7.37 104.97 7.37 102.42 11.8 114.41 11.8 116.96 7.37"/><polygon class="cls-2" points="146.9 7.37 134.91 7.37 132.36 11.8 144.35 11.8 146.9 7.37"/><polygon class="cls-2" points="236.73 7.37 224.74 7.37 222.19 11.8 234.19 11.8 236.73 7.37"/><polygon class="cls-2" points="87.01 7.37 75.02 7.37 72.47 11.8 84.47 11.8 87.01 7.37"/><polygon class="cls-2" points="101.98 7.37 89.99 7.37 87.45 11.8 99.44 11.8 101.98 7.37"/><polygon class="cls-2" points="131.93 7.37 119.94 7.37 117.39 11.8 129.38 11.8 131.93 7.37"/><polygon class="cls-2" points="206.79 7.37 194.8 7.37 192.25 11.8 204.25 11.8 206.79 7.37"/><polygon class="cls-2" points="221.76 7.37 209.77 7.37 207.22 11.8 219.22 11.8 221.76 7.37"/><polygon class="cls-2" points="161.87 7.37 149.88 7.37 147.33 11.8 159.33 11.8 161.87 7.37"/><polygon class="cls-2" points="176.84 7.37 164.85 7.37 162.31 11.8 174.3 11.8 176.84 7.37"/><polygon class="cls-2" points="191.82 7.37 179.82 7.37 177.28 11.8 189.27 11.8 191.82 7.37"/><polygon class="cls-2" points="8.12 14.38 0.36 14.38 0.36 27.89 8.12 14.38"/><path class="cls-2" d="M87.24,33.74h-12a.19.19,0,0,1,0,.1l-9.94,17h12Z"/><path class="cls-2" d="M72.27,33.74h-12a.69.69,0,0,0,0,.1l-10,17h12Z"/><path class="cls-2" d="M117.18,33.74h-12a.3.3,0,0,1,0,.1l-10,17h12Z"/><path class="cls-2" d="M102.21,33.74h-12a.3.3,0,0,1,0,.1l-10,17h12Z"/><path class="cls-2" d="M42.32,33.74h-12a.3.3,0,0,1,0,.1l-10,17h12Z"/><path class="cls-2" d="M57.29,33.74h-12l0,.1-10,17h12Z"/><path class="cls-2" d="M192.05,33.74H180a.3.3,0,0,1,0,.1l-9.95,17h12Z"/><path class="cls-2" d="M177.07,33.74h-12a.3.3,0,0,1,0,.1l-9.95,17h12Z"/><path class="cls-2" d="M27.35,33.74h-12a.3.3,0,0,1,0,.1l-9.95,17h12Z"/><path class="cls-2" d="M207,33.74H195a.93.93,0,0,1-.05.1L185,50.8h12Z"/><path class="cls-2" d="M132.16,33.74h-12a.3.3,0,0,1,0,.1l-10,17h12Z"/><path class="cls-2" d="M147.13,33.74h-12l0,.1-10,17h12Z"/><path class="cls-2" d="M162.1,33.74h-12a.3.3,0,0,1,0,.1l-9.95,17h12Z"/><path class="cls-2" d="M2.37,50.8l10-17.06H.38s0,0,0,0v17Z"/><path class="cls-2" d="M344.74,33.74l-.05.1-9.95,17h12l10-17.06Z"/><polygon class="cls-2" points="355.45 14.38 351.7 20.91 358.73 31.16 360 31.16 360 14.38 355.45 14.38"/><polygon class="cls-2" points="359.49 7.37 356.94 11.8 360 11.8 360 7.37 359.49 7.37"/><path class="cls-2" d="M359.71,33.74a.69.69,0,0,0,0,.1l-9.95,17H360V33.74Z"/><path class="cls-2" d="M222,33.74H210a.19.19,0,0,1-.05.1L200,50.8h12Z"/><path class="cls-2" d="M266.91,33.74h-12a.3.3,0,0,1,0,.1l-10,17h12Z"/><path class="cls-2" d="M281.87,33.74h-12a.93.93,0,0,1-.05.1l-9.95,17h12Z"/><path class="cls-2" d="M237,33.74H225a1,1,0,0,1,0,.1L215,50.8h12Z"/><path class="cls-2" d="M296.85,33.74h-12a1,1,0,0,1,0,.1l-9.95,17h12Z"/><path class="cls-2" d="M251.93,33.74h-12a.3.3,0,0,1,0,.1l-9.95,17h12Z"/><polygon class="cls-2" points="345.82 31.16 355.59 31.16 350.28 23.39 345.82 31.16"/><polygon class="cls-2" points="340.49 14.38 336.73 20.91 343.25 30.43 352.48 14.38 340.49 14.38"/><polygon class="cls-2" points="344.52 7.37 341.97 11.8 353.97 11.8 356.51 7.37 344.52 7.37"/><path class="cls-2" d="M311.82,33.74h-12a1,1,0,0,1,0,.1l-9.95,17h12Z"/><path class="cls-2" d="M329.76,33.74a.3.3,0,0,1,0,.1l-10,17h12l10-17.06Z"/><path class="cls-2" d="M326.79,33.74h-12a1,1,0,0,1,0,.1l-9.95,17h12Z"/><polygon class="cls-2" points="91.29 31.16 101.07 31.16 95.76 23.39 91.29 31.16"/><polygon class="cls-2" points="136.21 31.16 145.99 31.16 140.67 23.39 136.21 31.16"/><polygon class="cls-2" points="181.13 31.16 190.9 31.16 185.59 23.39 181.13 31.16"/><polygon class="cls-2" points="166.15 31.16 175.94 31.16 170.62 23.39 166.15 31.16"/><polygon class="cls-2" points="121.23 31.16 131.02 31.16 125.7 23.39 121.23 31.16"/><polygon class="cls-2" points="106.26 31.16 116.05 31.16 110.73 23.39 106.26 31.16"/><polygon class="cls-2" points="270.95 31.16 280.74 31.16 275.42 23.39 270.95 31.16"/><polygon class="cls-2" points="255.99 31.16 265.76 31.16 260.45 23.39 255.99 31.16"/><polygon class="cls-2" points="241.01 31.16 250.79 31.16 245.47 23.39 241.01 31.16"/><polygon class="cls-2" points="211.07 31.16 220.85 31.16 215.53 23.39 211.07 31.16"/><polygon class="cls-2" points="226.04 31.16 235.82 31.16 230.5 23.39 226.04 31.16"/><polygon class="cls-2" points="196.1 31.16 205.88 31.16 200.56 23.39 196.1 31.16"/><polygon class="cls-2" points="151.18 31.16 160.96 31.16 155.64 23.39 151.18 31.16"/><polygon class="cls-2" points="0.36 11.8 9.61 11.8 12.15 7.37 0.36 7.37 0.36 11.8"/><polygon class="cls-2" points="76.32 31.16 86.1 31.16 80.78 23.39 76.32 31.16"/><polygon class="cls-2" points="46.38 31.16 56.16 31.16 50.84 23.39 46.38 31.16"/><polygon class="cls-2" points="61.35 31.16 71.13 31.16 65.81 23.39 61.35 31.16"/><polygon class="cls-2" points="16.43 31.16 26.21 31.16 20.9 23.39 16.43 31.16"/><polygon class="cls-2" points="1.46 31.16 11.24 31.16 5.92 23.39 1.46 31.16"/><polygon class="cls-2" points="31.4 31.16 41.19 31.16 35.87 23.39 31.4 31.16"/><polygon class="cls-2" points="310.54 14.38 306.79 20.91 313.31 30.43 322.54 14.38 310.54 14.38"/><polygon class="cls-2" points="314.57 7.37 312.02 11.8 324.02 11.8 326.57 7.37 314.57 7.37"/><polygon class="cls-2" points="315.87 31.16 325.65 31.16 320.33 23.39 315.87 31.16"/><polygon class="cls-2" points="300.9 31.16 310.68 31.16 305.36 23.39 300.9 31.16"/><polygon class="cls-2" points="325.51 14.38 321.76 20.91 328.28 30.43 337.51 14.38 325.51 14.38"/><polygon class="cls-2" points="329.54 7.37 326.99 11.8 338.99 11.8 341.54 7.37 329.54 7.37"/><polygon class="cls-2" points="285.93 31.16 295.71 31.16 290.39 23.39 285.93 31.16"/><polygon class="cls-2" points="330.84 31.16 340.62 31.16 335.3 23.39 330.84 31.16"/></g></g></svg>